<svg width="312" height="344" viewBox="0 0 312 344" fill="none" xmlns="http://www.w3.org/2000/svg">
<path d="M184.226 266L189.123 261.725L184.226 266ZM306.399 330.348C309.904 329.575 312.12 326.107 311.348 322.601L298.76 265.472C297.987 261.966 294.519 259.75 291.013 260.523C287.508 261.295 285.292 264.763 286.064 268.269L297.254 319.051L246.472 330.24C242.966 331.013 240.75 334.481 241.523 337.987C242.295 341.492 245.763 343.708 249.269 342.936L306.399 330.348ZM184.226 120.5L188.511 115.612L184.226 120.5ZM179.33 270.275C195.516 288.816 218.223 298.004 240.256 305.375C262.875 312.943 284.387 318.544 301.5 329.478L308.5 318.523C289.613 306.456 265.679 300.172 244.381 293.047C222.498 285.726 202.818 277.414 189.123 261.725L179.33 270.275ZM179.942 125.388C185.428 130.197 187.506 137.952 186.683 149.478C185.862 160.981 182.286 174.454 178.421 188.983C174.645 203.18 170.609 218.34 169.521 232.154C168.434 245.956 170.163 259.774 179.33 270.275L189.123 261.725C183.349 255.111 181.502 245.598 182.481 233.175C183.458 220.766 187.131 206.811 190.984 192.324C194.749 178.171 198.722 163.393 199.65 150.403C200.576 137.436 198.601 124.456 188.511 115.612L179.942 125.388ZM6.95374 1.09814C0.518439 2.013 0.518659 2.01455 0.51893 2.01645C0.519086 2.01755 0.519407 2.01979 0.51972 2.02198C0.520346 2.02636 0.521172 2.03213 0.522198 2.03927C0.52425 2.05355 0.527102 2.07332 0.530761 2.09851C0.538077 2.14888 0.548619 2.2209 0.562426 2.31391C0.590038 2.49992 0.630721 2.76991 0.684805 3.11853C0.792963 3.8157 0.954787 4.82778 1.17295 6.11196C1.60912 8.67949 2.27133 12.3396 3.18117 16.7491C4.99733 25.5508 7.8167 37.4192 11.8236 49.5756C15.8113 61.6738 21.0754 74.3698 27.8911 84.6463C34.6195 94.7911 43.5416 103.594 55.1789 105.981L57.7914 93.2464C51.132 91.8802 44.7144 86.4917 38.7249 77.461C32.8229 68.5621 27.9912 57.0983 24.1702 45.506C20.3684 33.9719 17.6662 22.6189 15.913 14.122C15.0381 9.88209 14.4036 6.37352 13.9893 3.93469C13.7822 2.71571 13.6304 1.76519 13.5311 1.12556C13.4815 0.805786 13.4451 0.563822 13.4215 0.40498C13.4097 0.325562 13.4011 0.266936 13.3957 0.229762C13.393 0.211176 13.3911 0.197955 13.39 0.190181C13.3895 0.186295 13.3891 0.18377 13.3889 0.182617C13.3889 0.18204 13.3889 0.18221 13.3888 0.181919C13.3889 0.182431 13.389 0.183288 6.95374 1.09814ZM55.1789 105.981C64.9611 107.988 76.0878 108.526 87.4 108.704C98.976 108.885 110.47 108.695 122.156 109.128C145.575 109.996 166.234 113.372 179.942 125.388L188.511 115.612C171.068 100.322 146.153 97.0085 122.637 96.1368C110.856 95.7 98.5427 95.8769 87.604 95.7052C76.4014 95.5294 66.306 94.9932 57.7914 93.2464L55.1789 105.981Z" fill="#FFD22F"/>
</svg>
