<svg width="246" height="351" viewBox="0 0 246 351" fill="none" xmlns="http://www.w3.org/2000/svg">
<path d="M1.29869 299.774C-0.785548 296.851 -0.105757 292.792 2.81706 290.708L50.4473 256.743C53.3701 254.659 57.4291 255.339 59.5134 258.262C61.5976 261.184 60.9178 265.243 57.995 267.328L15.6571 297.519L45.8481 339.857C47.9323 342.78 47.2525 346.839 44.3297 348.923C41.4069 351.007 37.3478 350.327 35.2636 347.404L1.29869 299.774ZM101.5 117L105.654 122L101.5 117ZM106.272 278.473C93.3893 292.404 75.5458 299.574 57.5718 302.693C39.5679 305.818 20.8783 304.984 5.5173 302.411L7.66458 289.59C21.921 291.977 39.0972 292.705 55.3491 289.885C71.6308 287.06 86.4331 280.779 96.7277 269.647L106.272 278.473ZM105.654 122C104.24 123.174 102.829 125.479 101.932 129.768C101.045 134.01 100.81 139.494 101.141 146.09C101.804 159.303 104.638 175.525 107.607 192.476C110.534 209.185 113.587 226.581 114.398 241.39C114.805 248.811 114.67 255.876 113.572 262.067C112.482 268.208 110.345 274.069 106.272 278.473L96.7277 269.647C98.4496 267.785 99.9087 264.661 100.771 259.797C101.625 254.983 101.797 249.024 101.418 242.101C100.657 228.222 97.7681 211.653 94.802 194.719C91.8782 178.027 88.8689 160.928 88.1571 146.742C87.8008 139.638 87.9954 132.903 89.2077 127.107C90.4103 121.356 92.7691 115.803 97.3464 112L105.654 122ZM237.5 1C243.979 0.473434 243.979 0.4747 243.979 0.476344C243.979 0.477397 243.979 0.479422 243.979 0.481526C243.98 0.485736 243.98 0.491455 243.981 0.498672C243.982 0.513105 243.983 0.533528 243.986 0.55985C243.99 0.612491 243.996 0.688728 244.003 0.78782C244.018 0.985998 244.04 1.27563 244.067 1.6508C244.121 2.40107 244.196 3.4938 244.281 4.88159C244.451 7.6564 244.662 11.6151 244.827 16.3777C245.157 25.8858 245.309 38.6761 244.58 51.6806C243.856 64.5944 242.245 78.1243 238.887 88.9267C237.209 94.3245 234.986 99.4062 231.946 103.441C228.862 107.535 224.679 110.864 219.194 111.889L216.806 99.1107C218.214 98.8473 219.811 97.9442 221.563 95.6185C223.36 93.2336 225.03 89.7083 226.473 85.0676C229.356 75.793 230.896 63.52 231.601 50.9531C232.3 38.4771 232.157 26.1089 231.835 16.8287C231.674 12.1972 231.469 8.35427 231.305 5.67602C231.223 4.33727 231.152 3.2906 231.101 2.5831C231.075 2.22938 231.055 1.96054 231.041 1.78247C231.035 1.69343 231.029 1.6271 231.026 1.5842C231.024 1.56275 231.023 1.54716 231.022 1.53752C231.022 1.53271 231.022 1.52938 231.021 1.52755C231.021 1.52663 231.021 1.52639 231.021 1.52593C231.021 1.52606 231.021 1.52657 237.5 1ZM219.194 111.889C211.557 113.317 201.703 113.405 191.386 113.17C180.682 112.926 169.721 112.346 158.323 112.216C147.097 112.088 136.312 112.426 126.979 113.944C117.546 115.478 110.338 118.108 105.654 122L97.3464 112C104.645 105.937 114.544 102.796 124.893 101.112C135.342 99.4129 147.014 99.0865 158.471 99.217C169.755 99.3454 181.701 99.9458 191.682 100.173C202.049 100.41 210.656 100.26 216.806 99.1107L219.194 111.889Z" fill="#FFD22F"/>
</svg>
