<svg width="510" height="486" viewBox="0 0 510 486" fill="none" xmlns="http://www.w3.org/2000/svg">
<path fill-rule="evenodd" clip-rule="evenodd" d="M506.003 252.722L505.04 255.923L503.973 259.096L502.806 262.238L501.544 265.345L500.19 268.416L498.749 271.448L497.227 274.439L495.628 277.386L493.958 280.29L492.221 283.148L490.423 285.959L488.57 288.723L486.668 291.439L484.721 294.108L482.737 296.729L480.72 299.302L478.677 301.829L476.613 304.311L474.534 306.749L472.446 309.145L470.354 311.5L468.263 313.817L466.179 316.099L464.107 318.347L462.05 320.565L460.015 322.755L458.004 324.922L456.022 327.069L454.073 329.198L452.159 331.314L450.283 333.42L448.449 335.521L446.657 337.619L444.911 339.719L443.21 341.825L441.555 343.939L439.947 346.066L438.385 348.208L436.867 350.368L435.393 352.549L433.959 354.753L432.564 356.981L431.204 359.236L429.875 361.517L428.574 363.827L427.297 366.164L426.039 368.529L424.795 370.92L423.56 373.337L422.329 375.777L421.096 378.238L419.856 380.718L418.603 383.213L417.332 385.719L416.038 388.234L414.716 390.751L413.359 393.267L411.963 395.775L410.524 398.272L409.036 400.75L407.497 403.205L405.902 405.63L404.248 408.018L402.532 410.365L400.751 412.663L398.904 414.906L396.989 417.089L395.005 419.205L392.952 421.248L390.829 423.214L388.637 425.097L386.376 426.892L384.049 428.596L381.657 430.203L379.202 431.711L376.688 433.116L374.116 434.417L371.491 435.611L368.817 436.697L366.097 437.676L363.335 438.546L360.536 439.309L357.706 439.967L354.847 440.522L351.967 440.978L349.07 441.34L346.161 441.614L343.245 441.807L340.328 441.927L337.414 441.981L334.507 441.978L331.612 441.929L328.731 441.843L325.869 441.73L323.027 441.602L320.207 441.467L317.411 441.338L314.639 441.225L311.892 441.137L309.169 441.086L306.469 441.079L303.79 441.127L301.13 441.237L298.485 441.417L295.854 441.673L293.232 442.011L290.614 442.435L287.997 442.949L285.376 443.555L282.746 444.254L280.103 445.046L277.44 445.932L274.754 446.91L272.04 447.978L269.292 449.133L266.507 450.37L263.68 451.687L260.806 453.077L257.883 454.533L254.907 456.05L251.874 457.619L248.783 459.233L245.631 460.882L242.416 462.557L239.139 464.249L235.797 465.947L232.393 467.64L228.925 469.319L225.396 470.971L221.808 472.587L218.163 474.155L214.464 475.663L210.715 477.101L206.92 478.459L203.084 479.725L199.213 480.89L195.312 481.944L191.387 482.877L187.446 483.681L183.494 484.347L179.54 484.869L175.59 485.239L171.653 485.451L167.736 485.5L163.848 485.381L159.995 485.091L156.187 484.626L152.43 483.985L148.733 483.167L145.102 482.171L141.545 480.998L138.069 479.649L134.679 478.128L131.382 476.435L128.183 474.577L125.086 472.557L122.097 470.381L119.219 468.055L116.454 465.586L113.803 462.981L111.269 460.251L108.849 457.404L106.544 454.449L104.351 451.398L102.267 448.26L100.289 445.047L98.4101 441.77L96.6266 438.437L94.9319 435.062L93.3192 431.652L91.7812 428.22L90.3101 424.772L88.8978 421.32L87.5358 417.87L86.2156 414.43L84.9285 411.008L83.666 407.609L82.4195 404.238L81.1808 400.9L79.9422 397.598L78.6964 394.335L77.4366 391.113L76.1568 387.931L74.8518 384.791L73.517 381.69L72.1482 378.629L70.7417 375.606L69.2944 372.617L67.8037 369.661L66.2675 366.736L64.6843 363.836L63.0531 360.96L61.3737 358.103L59.6463 355.262L57.8717 352.432L56.0514 349.61L54.1872 346.79L52.2818 343.969L50.3381 341.142L48.3596 338.305L46.3503 335.455L44.3147 332.587L42.2575 329.697L40.184 326.781L38.0998 323.837L36.0106 320.862L33.9224 317.851L31.8417 314.804L29.7748 311.717L27.7283 308.588L25.7088 305.417L23.723 302.202L21.7776 298.942L19.8792 295.637L18.0343 292.286L16.2494 288.89L14.5305 285.449L12.8839 281.964L11.3151 278.437L9.82982 274.869L8.4332 271.262L7.13014 267.618L5.9252 263.939L4.82258 260.229L3.82608 256.488L2.93913 252.722L2.16475 248.933L1.50555 245.123L0.963733 241.298L0.541094 237.459L0.239016 233.611L0.0584802 229.758L0 225.902L0.0633953 222.048L0.247759 218.199L0.551521 214.358L0.972511 210.529L1.50803 206.714L2.15492 202.917L2.90961 199.14L3.76823 195.385L4.7266 191.654L5.78038 187.949L6.92507 184.273L8.15609 180.625L9.46882 177.007L10.8587 173.421L12.3212 169.866L13.8519 166.343L15.4467 162.852L17.1015 159.394L18.8124 155.969L20.576 152.576L22.389 149.215L24.2485 145.886L26.1518 142.589L28.0965 139.323L30.0807 136.088L32.1028 132.885L34.1614 129.712L36.2551 126.57L38.383 123.46L40.5441 120.379L42.7377 117.33L44.9631 114.311L47.2198 111.323L49.5073 108.366L51.8252 105.441L54.1732 102.546L56.5512 99.6832L58.9589 96.8522L61.3961 94.0533L63.8627 91.2869L66.3585 88.5533L68.8833 85.8529L71.4371 83.1861L74.0196 80.5531L76.6306 77.9545L79.2698 75.3904L81.937 72.8612L84.6319 70.3673L87.3541 67.9088L90.1032 65.486L92.8788 63.0991L95.6804 60.7481L98.5076 58.4333L101.36 56.1546L104.236 53.9119L107.137 51.7054L110.061 49.5349L113.007 47.4003L115.976 45.3014L118.967 43.2382L121.979 41.2104L125.011 39.2179L128.064 37.2606L131.137 35.3382L134.229 33.4508L137.34 31.5983L140.469 29.7807L143.618 27.9982L146.785 26.2509L149.97 24.5392L153.173 22.8634L156.395 21.2242L159.634 19.6222L162.892 18.0584L166.169 16.5338L169.463 15.0499L172.777 13.6088L176.11 12.2134L179.464 10.867L182.838 9.57344L186.233 8.33718L189.65 7.16304L193.089 6.05626L196.55 5.02241L200.033 4.06734L203.538 3.19711L207.064 2.41792L210.61 1.73602L214.174 1.15767L217.756 0.689029L221.353 0.336093L224.962 0.10461L228.581 0L232.207 0.0272734L235.836 0.190949L239.465 0.494977L243.089 0.942654L246.705 1.53656L250.308 2.27845L253.892 3.16924L257.454 4.20889L260.988 5.39644L264.49 6.73027L267.955 8.20814L271.378 9.8272L274.754 11.584L278.08 13.4744L281.351 15.4938L284.564 17.637L287.714 19.8981L290.798 22.2709L293.813 24.7485L296.757 27.3237L299.626 29.9886L302.421 32.7354L305.138 35.5554L307.778 38.44L310.339 41.3801L312.822 44.3666L315.227 47.3901L317.555 50.4412L319.807 53.5104L321.986 56.5883L324.094 59.6655L326.134 62.7328L328.109 65.7811L330.023 68.8016L331.88 71.7858L333.685 74.7256L335.443 77.6131L337.158 80.4411L338.837 83.2028L340.485 85.8917L342.109 88.5023L343.713 91.0294L345.305 93.4684L346.891 95.8156L348.477 98.0678L350.069 100.223L351.673 102.278L353.296 104.234L354.943 106.088L356.62 107.843L358.331 109.499L360.084 111.058L361.88 112.522L363.726 113.894L365.624 115.179L367.578 116.38L369.591 117.503L371.665 118.553L373.801 119.536L376.001 120.457L378.267 121.323L380.598 122.14L382.995 122.913L385.458 123.651L387.986 124.358L390.577 125.043L393.23 125.712L395.944 126.371L398.714 127.027L401.539 127.687L404.416 128.358L407.339 129.046L410.306 129.758L413.312 130.498L416.353 131.274L419.422 132.091L422.516 132.954L425.629 133.867L428.755 134.836L431.89 135.865L435.028 136.956L438.163 138.114L441.292 139.34L444.408 140.638L447.507 142.009L450.585 143.454L453.636 144.976L456.655 146.575L459.637 148.252L462.578 150.009L465.471 151.845L468.311 153.761L471.095 155.756L473.816 157.831L476.469 159.985L479.05 162.217L481.553 164.526L483.974 166.911L486.308 169.37L488.551 171.901L490.699 174.502L492.746 177.171L494.691 179.906L496.528 182.703L498.254 185.56L499.866 188.473L501.362 191.44L502.738 194.456L503.992 197.518L505.123 200.623L506.128 203.766L507.006 206.944L507.756 210.152L508.378 213.386L508.871 216.642L509.234 219.916L509.469 223.203L509.575 226.5L509.555 229.802L509.408 233.105L509.138 236.405L508.745 239.698L508.232 242.98L507.603 246.247L506.858 249.495L506.003 252.722Z" fill="url(#paint0_linear_141_10)"/>
<defs>
<linearGradient id="paint0_linear_141_10" x1="-22.8725" y1="-245.637" x2="-530.052" y2="-198.411" gradientUnits="userSpaceOnUse">
<stop stop-color="#0099FF"/>
<stop offset="1" stop-color="#FFD22F"/>
</linearGradient>
</defs>
</svg>
