<svg width="1108" height="687" viewBox="0 0 1108 687" fill="none" xmlns="http://www.w3.org/2000/svg">
<path d="M709.416 98.7144C733.241 -18.5493 953.587 66.7216 952.162 142.174C1112.99 92.5782 1166.27 304.344 1009.18 347.872C1170 298.277 1102.14 597.021 973.398 530.471C1049.83 597.928 819.346 733.109 709.416 588.661C718.813 702.394 449.527 725.833 437.118 588.661C406.777 668.517 91.0099 693.645 191.667 489.504C17.6014 573.335 -55.0313 329.553 117.195 309.197C-104.835 276.473 47.282 72.2382 182.629 155.506C201.027 -6.30778 410.377 -15.5101 441.393 91.8544C485.109 -24.485 680.426 -27.8672 709.416 98.7144Z" stroke="#FFD22F" stroke-width="8"/>
</svg>
