<?xml version="1.0" standalone="no"?>
<!DOCTYPE svg PUBLIC "-//W3C//DTD SVG 20010904//EN"
 "http://www.w3.org/TR/2001/REC-SVG-20010904/DTD/svg10.dtd">
<svg version="1.0" xmlns="http://www.w3.org/2000/svg"
 width="512.000000pt" height="512.000000pt" viewBox="0 0 512.000000 512.000000"
 preserveAspectRatio="xMidYMid meet">

<g transform="translate(0.000000,512.000000) scale(0.100000,-0.100000)"
fill="#000000" stroke="none">
<path d="M390 5109 c-25 -5 -78 -25 -118 -45 -239 -117 -336 -406 -221 -653
29 -61 93 -127 923 -958 l891 -893 -892 -892 c-695 -696 -897 -904 -916 -943
-79 -158 -76 -350 6 -485 32 -53 113 -136 166 -169 142 -90 331 -96 496 -14
39 19 247 221 943 916 l892 892 893 -891 c831 -830 897 -894 958 -923 248
-116 536 -17 655 224 69 139 70 291 3 434 -29 61 -93 127 -923 959 l-891 892
892 893 c938 939 919 918 957 1046 24 82 21 211 -8 292 -102 290 -418 412
-701 272 -39 -19 -247 -221 -942 -916 l-893 -892 -892 891 c-831 829 -898 894
-958 922 -107 49 -209 63 -320 41z m261 -125 c60 -26 117 -81 986 -948 l923
-921 922 921 c871 868 927 922 988 950 57 25 77 29 160 29 88 0 101 -3 162
-33 204 -100 281 -321 186 -530 -17 -37 -215 -241 -942 -969 l-921 -923 921
-922 c859 -861 923 -927 948 -985 143 -330 -186 -661 -516 -517 -59 26 -122
86 -986 948 l-922 921 -923 -921 c-860 -859 -926 -923 -984 -948 -245 -106
-518 51 -549 317 -8 65 10 155 43 222 20 39 225 250 941 968 l917 917 -921
923 c-870 871 -922 926 -950 987 -38 87 -41 214 -5 302 41 104 152 204 260
235 72 20 187 10 262 -23z"/>
</g>
</svg>
