<svg width="58" height="36" viewBox="0 0 58 36" fill="none" xmlns="http://www.w3.org/2000/svg">
<g id="Group 198">
<rect id="Rectangle 94" x="1" y="1" width="56" height="33.7695" rx="1" fill="#A9C3E3" stroke="black" stroke-width="2"/>
<g id="&#240;&#159;&#166;&#134; icon &#34;thumb down&#34;">
<path id="Vector" d="M33.3462 29.4831L33.3496 29.4942L33.3532 29.5052C33.5177 30.0001 33.2583 30.4375 32.8704 30.5601C32.4046 30.696 31.9159 30.5092 31.6251 29.9258C31.6066 29.8887 31.5835 29.8421 31.556 29.787C31.23 29.1322 30.2991 27.2622 29.3441 25.419C28.8269 24.4207 28.2987 23.4227 27.8537 22.6268C27.6316 22.2296 27.4255 21.8743 27.2489 21.591C27.0923 21.3397 26.9047 21.0547 26.7247 20.8741C26.0573 20.2046 25.2437 19.805 24.3651 19.6378V6.76953H36.254C36.5906 6.76953 36.9041 6.97478 37.0569 7.2905L37.084 7.36746L37.204 7.70933C37.3075 8.00453 37.4553 8.42759 37.6328 8.93855C37.9877 9.96072 38.4608 11.3335 38.9335 12.7379C39.4068 14.1437 39.8777 15.5748 40.2295 16.7158C40.4057 17.2873 40.5493 17.7771 40.6479 18.1506C40.6974 18.338 40.733 18.4866 40.7555 18.5967C40.7711 18.6724 40.7761 18.7099 40.7776 18.7193C40.7674 19.1939 40.4056 19.5457 39.9365 19.5457H34.4127C32.7883 19.5457 31.5714 20.9588 31.5714 22.3928C31.5714 22.7598 31.6937 23.3588 31.8259 23.9335C31.9692 24.5569 32.1617 25.3015 32.361 26.0385C32.7598 27.5132 33.1956 28.9923 33.3462 29.4831ZM18.6825 19.5457H17V6.76953H18.6825V19.5457Z" fill="black" stroke="black" stroke-width="2"/>
</g>
</g>
</svg>
