<svg width="30" height="24" viewBox="0 0 30 24" fill="none" xmlns="http://www.w3.org/2000/svg">
<g id="majesticons:home-line">
<path id="Vector" d="M23 18.0476V9.95238C23 9.80453 22.9593 9.65871 22.8812 9.52646C22.8031 9.39422 22.6897 9.27919 22.55 9.19048L14.675 4.19048C14.4803 4.06684 14.2434 4 14 4C13.7566 4 13.5197 4.06684 13.325 4.19048L5.45 9.19048C5.31028 9.27919 5.19688 9.39422 5.11877 9.52646C5.04066 9.65871 5 9.80453 5 9.95238V18.0476C5 18.3002 5.11853 18.5424 5.32951 18.7211C5.54048 18.8997 5.82663 19 6.125 19H10.625C10.9234 19 11.2095 18.8997 11.4205 18.7211C11.6315 18.5424 11.75 18.3002 11.75 18.0476V15.1905C11.75 14.9379 11.8685 14.6956 12.0795 14.517C12.2905 14.3384 12.5766 14.2381 12.875 14.2381H15.125C15.4234 14.2381 15.7095 14.3384 15.9205 14.517C16.1315 14.6956 16.25 14.9379 16.25 15.1905V18.0476C16.25 18.3002 16.3685 18.5424 16.5795 18.7211C16.7905 18.8997 17.0766 19 17.375 19H21.875C22.1734 19 22.4595 18.8997 22.6705 18.7211C22.8815 18.5424 23 18.3002 23 18.0476Z" stroke="#525050" stroke-width="2" stroke-linecap="round" stroke-linejoin="round"/>
</g>
</svg>
