<svg width="30" height="28" viewBox="0 0 30 28" fill="none" xmlns="http://www.w3.org/2000/svg">
<g id="&#240;&#159;&#166;&#134; icon &#34;calender&#34;">
<path id="Vector" d="M0.583496 23.5567C0.583496 25.9124 2.4685 27.7137 4.9335 27.7137H25.2335C27.6985 27.7137 29.5835 25.9124 29.5835 23.5567V12.4712H0.583496V23.5567ZM25.2335 2.77137H22.3335V1.38569C22.3335 0.554275 21.7535 0 20.8835 0C20.0135 0 19.4335 0.554275 19.4335 1.38569V2.77137H10.7335V1.38569C10.7335 0.554275 10.1535 0 9.2835 0C8.4135 0 7.8335 0.554275 7.8335 1.38569V2.77137H4.9335C2.4685 2.77137 0.583496 4.57277 0.583496 6.92844V9.69981H29.5835V6.92844C29.5835 4.57277 27.6985 2.77137 25.2335 2.77137Z" fill="black"/>
</g>
</svg>
