<svg width="32" height="31" viewBox="0 0 32 31" fill="none" xmlns="http://www.w3.org/2000/svg">
<g id="&#240;&#159;&#166;&#134; icon &#34;messages 3&#34;">
<g id="Group">
<path id="Vector" d="M21.1151 16.1004V22.4012C21.1151 22.9585 21.0531 23.4849 20.9135 23.9648C20.3396 26.2405 18.4473 27.6647 15.8415 27.6647H11.6226L6.93838 30.7764C6.2404 31.2563 5.30976 30.7455 5.30976 29.9095V27.6647C3.72767 27.6647 2.40926 27.1384 1.49413 26.225C0.563495 25.2962 0.0361328 23.9803 0.0361328 22.4012V16.1004C0.0361328 13.1591 1.86639 11.1311 4.68933 10.8679C4.89097 10.8524 5.09261 10.8369 5.30976 10.8369H15.8415C19.0057 10.8369 21.1151 12.9423 21.1151 16.1004Z" fill="black"/>
<path id="Vector_2" d="M24.4653 21.0541C26.4352 21.0541 28.0948 20.4039 29.2426 19.2429C30.4059 18.0973 31.0573 16.4408 31.0573 14.4747V6.57942C31.0573 2.94139 28.1103 0 24.4653 0H11.2812C7.63623 0 4.68921 2.94139 4.68921 6.57942V7.74049C4.68921 8.17396 5.03044 8.51454 5.46474 8.51454H15.8414C20.0448 8.51454 23.4416 11.9049 23.4416 16.1002V20.2801C23.4416 20.7136 23.7828 21.0541 24.2171 21.0541H24.4653Z" fill="black"/>
</g>
</g>
</svg>
