<svg width="9" height="29" viewBox="0 0 9 29" fill="none" xmlns="http://www.w3.org/2000/svg">
<g id="&#240;&#159;&#166;&#134; icon &#34;Vertical Ellipsis&#34;">
<path id="Vector" d="M4.53638 10.0339C6.81882 10.0339 8.66541 11.8696 8.66541 14.1387C8.66541 16.4077 6.81882 18.2434 4.53638 18.2434C2.25394 18.2434 0.407349 16.4077 0.407349 14.1387C0.407349 11.8696 2.25394 10.0339 4.53638 10.0339ZM0.407349 4.10478C0.407349 6.3738 2.25394 8.20955 4.53638 8.20955C6.81882 8.20955 8.66541 6.3738 8.66541 4.10478C8.66541 1.83575 6.81882 0 4.53638 0C2.25394 0 0.407349 1.83575 0.407349 4.10478ZM0.407349 24.1726C0.407349 26.4416 2.25394 28.2773 4.53638 28.2773C6.81882 28.2773 8.66541 26.4416 8.66541 24.1726C8.66541 21.9035 6.81882 20.0678 4.53638 20.0678C2.25394 20.0678 0.407349 21.9035 0.407349 24.1726Z" fill="black"/>
</g>
</svg>
