<svg width="31" height="26" viewBox="0 0 31 26" fill="none" xmlns="http://www.w3.org/2000/svg">
<g id="&#240;&#159;&#166;&#134; icon &#34;Alternate Sign Out&#34;">
<path id="Vector" d="M30.1116 14.1234L19.9978 25.475C19.0948 26.4885 17.5295 25.779 17.5295 24.3263V17.8397H9.34214C8.54146 17.8397 7.89731 17.1167 7.89731 16.218V9.73138C7.89731 8.83271 8.54146 8.10972 9.34214 8.10972H17.5295V1.62309C17.5295 0.177117 19.0887 -0.539115 19.9978 0.474421L30.1116 11.826C30.6715 12.4612 30.6715 13.4882 30.1116 14.1234ZM11.7502 25.1371V22.4344C11.7502 21.9884 11.4251 21.6235 11.0278 21.6235H5.97086C4.9053 21.6235 4.04442 20.6573 4.04442 19.4613V6.48807C4.04442 5.29209 4.9053 4.32586 5.97086 4.32586H11.0278C11.4251 4.32586 11.7502 3.96098 11.7502 3.51503V0.812266C11.7502 0.36631 11.4251 0.0014371 11.0278 0.0014371H5.97086C2.78019 0.0014371 0.191528 2.90691 0.191528 6.48807V19.4613C0.191528 23.0425 2.78019 25.948 5.97086 25.948H11.0278C11.4251 25.948 11.7502 25.5831 11.7502 25.1371Z" fill="black"/>
</g>
</svg>
