<svg width="31" height="36" viewBox="0 0 31 36" fill="none" xmlns="http://www.w3.org/2000/svg">
<g id="&#240;&#159;&#166;&#134; icon &#34;Calendar Check&#34;">
<path id="Vector" d="M30.1696 11.0714H0.830357C0.371792 11.0714 0 10.6996 0 10.2411V7.75C0 5.9156 1.48703 4.42857 3.32143 4.42857H6.64286V0.830357C6.64286 0.371792 7.01465 0 7.47321 0H10.2411C10.6996 0 11.0714 0.371792 11.0714 0.830357V4.42857H19.9286V0.830357C19.9286 0.371792 20.3004 0 20.7589 0H23.5268C23.9853 0 24.3571 0.371792 24.3571 0.830357V4.42857H27.6786C29.513 4.42857 31 5.9156 31 7.75V10.2411C31 10.6996 30.6282 11.0714 30.1696 11.0714ZM0.830357 13.2857H30.1696C30.6282 13.2857 31 13.6575 31 14.1161V32.1071C31 33.9415 29.513 35.4286 27.6786 35.4286H3.32143C1.48703 35.4286 0 33.9415 0 32.1071V14.1161C0 13.6575 0.371792 13.2857 0.830357 13.2857ZM23.8932 19.9249L21.9441 17.9599C21.6211 17.6343 21.0954 17.6321 20.7698 17.9552L13.4324 25.2335L10.2508 22.0261C9.92782 21.7006 9.402 21.6984 9.07643 22.0214L7.11146 23.9707C6.78589 24.2936 6.78374 24.8194 7.10675 25.1449L12.8224 30.9069C13.1454 31.2324 13.6711 31.2346 13.9967 30.9116L23.8885 21.0992C24.2141 20.7762 24.2163 20.2505 23.8932 19.9249Z" fill="black"/>
</g>
</svg>
