<svg width="34" height="30" viewBox="0 0 34 30" fill="none" xmlns="http://www.w3.org/2000/svg">
<g id="&#240;&#159;&#166;&#134; icon &#34;Wallet&#34;">
<path id="Vector" d="M30.6266 6.375H5.3125C4.72547 6.375 4.25 5.89953 4.25 5.3125C4.25 4.72547 4.72547 4.25 5.3125 4.25H30.8125C31.3995 4.25 31.875 3.77453 31.875 3.1875C31.875 1.42707 30.4479 0 28.6875 0H4.25C1.90254 0 0 1.90254 0 4.25V25.5C0 27.8475 1.90254 29.75 4.25 29.75H30.6266C32.4873 29.75 34 28.3203 34 26.5625V9.5625C34 7.80473 32.4873 6.375 30.6266 6.375ZM27.625 20.1875C26.4516 20.1875 25.5 19.2359 25.5 18.0625C25.5 16.8891 26.4516 15.9375 27.625 15.9375C28.7984 15.9375 29.75 16.8891 29.75 18.0625C29.75 19.2359 28.7984 20.1875 27.625 20.1875Z" fill="black"/>
</g>
</svg>
