<svg width="36" height="38" viewBox="0 0 36 38" fill="none" xmlns="http://www.w3.org/2000/svg">
<g id="&#240;&#159;&#166;&#134; icon &#34;dashboard&#34;">
<path id="Vector" d="M5.91831 20.4739H14.7959C15.6096 20.4739 16.2754 19.7652 16.2754 18.899V6.29954C16.2754 5.43333 15.6096 4.72461 14.7959 4.72461H5.91831C5.10454 4.72461 4.43872 5.43333 4.43872 6.29954V18.899C4.43872 19.7652 5.10454 20.4739 5.91831 20.4739ZM5.91831 33.0734H14.7959C15.6096 33.0734 16.2754 32.3647 16.2754 31.4984V25.1987C16.2754 24.3325 15.6096 23.6238 14.7959 23.6238H5.91831C5.10454 23.6238 4.43872 24.3325 4.43872 25.1987V31.4984C4.43872 32.3647 5.10454 33.0734 5.91831 33.0734ZM20.7142 33.0734H29.5918C30.4055 33.0734 31.0714 32.3647 31.0714 31.4984V18.899C31.0714 18.0328 30.4055 17.3241 29.5918 17.3241H20.7142C19.9004 17.3241 19.2346 18.0328 19.2346 18.899V31.4984C19.2346 32.3647 19.9004 33.0734 20.7142 33.0734ZM19.2346 6.29954V12.5993C19.2346 13.4655 19.9004 14.1742 20.7142 14.1742H29.5918C30.4055 14.1742 31.0714 13.4655 31.0714 12.5993V6.29954C31.0714 5.43333 30.4055 4.72461 29.5918 4.72461H20.7142C19.9004 4.72461 19.2346 5.43333 19.2346 6.29954Z" fill="black"/>
</g>
</svg>
