<svg width="26" height="31" viewBox="0 0 26 31" fill="none" xmlns="http://www.w3.org/2000/svg">
<g id="&#240;&#159;&#166;&#134; icon &#34;User&#34;">
<path id="Vector" d="M12.9955 15.0404C17.0626 15.0404 20.3588 11.6739 20.3588 7.52018C20.3588 3.36646 17.0626 0 12.9955 0C8.92838 0 5.63213 3.36646 5.63213 7.52018C5.63213 11.6739 8.92838 15.0404 12.9955 15.0404ZM18.1498 16.9204H17.1891C15.9121 17.5197 14.4912 17.8604 12.9955 17.8604C11.4998 17.8604 10.0847 17.5197 8.80182 16.9204H7.84113C3.57269 16.9204 0.109619 20.4572 0.109619 24.8166V27.2606C0.109619 28.8176 1.34643 30.0807 2.87087 30.0807H23.1201C24.6445 30.0807 25.8813 28.8176 25.8813 27.2606V24.8166C25.8813 20.4572 22.4183 16.9204 18.1498 16.9204Z" fill="black"/>
</g>
</svg>
