<svg width="31" height="31" viewBox="0 0 31 31" fill="none" xmlns="http://www.w3.org/2000/svg">
<g id="icons8-instagram-100 1">
<g id="Group">
<path id="Vector" opacity="0.969" fill-rule="evenodd" clip-rule="evenodd" d="M7.59508 1.70491C12.7628 1.65326 17.9295 1.70493 23.0951 1.85991C26.0319 2.7301 27.9436 4.64176 28.8301 7.59491C29.0368 12.7616 29.0368 17.9282 28.8301 23.0949C27.9518 26.0399 26.0401 27.9516 23.0951 28.8299C17.9284 29.0366 12.7618 29.0366 7.59508 28.8299C4.64193 27.9434 2.73026 26.0318 1.86008 23.0949C1.65341 17.9282 1.65341 12.7616 1.86008 7.59491C2.79548 4.64492 4.70715 2.68158 7.59508 1.70491ZM22.1651 6.97491C23.6092 6.82444 24.0226 7.39279 23.4051 8.67991C21.9258 8.93113 21.5125 8.36281 22.1651 6.97491ZM13.4851 8.83491C19.5242 8.41551 22.2625 11.2055 21.7001 17.2049C19.7509 21.6457 16.4959 22.9374 11.9351 21.0799C8.75522 18.684 7.98022 15.6357 9.61008 11.9349C10.5992 10.4893 11.8909 9.4559 13.4851 8.83491Z" fill="black"/>
</g>
<g id="Group_2">
<path id="Vector_2" opacity="0.944" fill-rule="evenodd" clip-rule="evenodd" d="M13.485 9.76483C19.0083 9.24294 21.4367 11.7229 20.77 17.2048C19.4121 20.4533 16.9838 21.6417 13.485 20.7698C9.9254 19.0906 8.8404 16.3523 10.23 12.5548C11.0067 11.2184 12.0917 10.2884 13.485 9.76483Z" fill="black"/>
</g>
</g>
</svg>
