<svg width="24" height="24" viewBox="0 0 24 24" fill="none" xmlns="http://www.w3.org/2000/svg">
<g id="tdesign:member">
<path id="Vector" d="M5.5 7C5.5 6.60603 5.5776 6.21593 5.72836 5.85195C5.87913 5.48797 6.1001 5.15726 6.37868 4.87868C6.65726 4.6001 6.98797 4.37913 7.35195 4.22836C7.71593 4.0776 8.10603 4 8.5 4C8.89397 4 9.28407 4.0776 9.64805 4.22836C10.012 4.37913 10.3427 4.6001 10.6213 4.87868C10.8999 5.15726 11.1209 5.48797 11.2716 5.85195C11.4224 6.21593 11.5 6.60603 11.5 7C11.5 7.79565 11.1839 8.55871 10.6213 9.12132C10.0587 9.68393 9.29565 10 8.5 10C7.70435 10 6.94129 9.68393 6.37868 9.12132C5.81607 8.55871 5.5 7.79565 5.5 7ZM8.5 2C7.17392 2 5.90215 2.52678 4.96447 3.46447C4.02678 4.40215 3.5 5.67392 3.5 7C3.5 8.32608 4.02678 9.59785 4.96447 10.5355C5.90215 11.4732 7.17392 12 8.5 12C9.82608 12 11.0979 11.4732 12.0355 10.5355C12.9732 9.59785 13.5 8.32608 13.5 7C13.5 5.67392 12.9732 4.40215 12.0355 3.46447C11.0979 2.52678 9.82608 2 8.5 2ZM15.5 2H14.5V4H15.5C15.894 4 16.2841 4.0776 16.6481 4.22836C17.012 4.37913 17.3427 4.6001 17.6213 4.87868C17.8999 5.15726 18.1209 5.48797 18.2716 5.85195C18.4224 6.21593 18.5 6.60603 18.5 7C18.5 7.39397 18.4224 7.78407 18.2716 8.14805C18.1209 8.51203 17.8999 8.84274 17.6213 9.12132C17.3427 9.3999 17.012 9.62087 16.6481 9.77164C16.2841 9.9224 15.894 10 15.5 10H14.5V12H15.5C16.8261 12 18.0979 11.4732 19.0355 10.5355C19.9732 9.59785 20.5 8.32608 20.5 7C20.5 5.67392 19.9732 4.40215 19.0355 3.46447C18.0979 2.52678 16.8261 2 15.5 2ZM0 19C0 17.6739 0.526784 16.4021 1.46447 15.4645C2.40215 14.5268 3.67392 14 5 14H12C13.3261 14 14.5979 14.5268 15.5355 15.4645C16.4732 16.4021 17 17.6739 17 19V21H15V19C15 18.2044 14.6839 17.4413 14.1213 16.8787C13.5587 16.3161 12.7956 16 12 16H5C4.20435 16 3.44129 16.3161 2.87868 16.8787C2.31607 17.4413 2 18.2044 2 19V21H0V19ZM24 19C24 18.3434 23.8707 17.6932 23.6194 17.0866C23.3681 16.48 22.9998 15.9288 22.5355 15.4645C22.0712 15.0002 21.52 14.6319 20.9134 14.3806C20.3068 14.1293 19.6566 14 19 14H18V16H19C19.7956 16 20.5587 16.3161 21.1213 16.8787C21.6839 17.4413 22 18.2044 22 19V21H24V19Z" fill="black"/>
</g>
</svg>
