<svg xmlns="http://www.w3.org/2000/svg" width="29" height="29" viewBox="0 0 29 29" fill="none">
<path fill-rule="evenodd" clip-rule="evenodd" d="M4.80952 1H23.8571C24.8675 1 25.8365 1.40136 26.5509 2.11578C27.2653 2.83021 27.6667 3.79918 27.6667 4.80952V23.8571C27.6667 24.8675 27.2653 25.8365 26.5509 26.5509C25.8365 27.2653 24.8675 27.6667 23.8571 27.6667H4.80952C3.79918 27.6667 2.83021 27.2653 2.11578 26.5509C1.40136 25.8365 1 24.8675 1 23.8571V4.80952C1 3.79918 1.40136 2.83021 2.11578 2.11578C2.83021 1.40136 3.79918 1 4.80952 1Z" stroke="#929292" stroke-width="2" stroke-linecap="round" stroke-linejoin="round"/>
<path d="M27.6667 20.0472L21.9524 14.333L16.2381 20.0187M23.8571 27.6663L6.71429 10.5234L1 16.2377" stroke="#929292" stroke-width="2" stroke-linecap="round" stroke-linejoin="round"/>
<path d="M21.0005 9.57124C22.0524 9.57124 22.9052 8.71845 22.9052 7.66648C22.9052 6.61451 22.0524 5.76172 21.0005 5.76172C19.9485 5.76172 19.0957 6.61451 19.0957 7.66648C19.0957 8.71845 19.9485 9.57124 21.0005 9.57124Z" fill="#A0A0A0"/>
</svg>