<svg width="36" height="36" viewBox="0 0 36 36" fill="none" xmlns="http://www.w3.org/2000/svg">
<g id="bx:file">
<path id="Vector" d="M29.8545 12.879C29.7834 12.7162 29.6838 12.5674 29.5605 12.4395L20.5605 3.4395C20.4326 3.31617 20.2838 3.21662 20.121 3.1455C20.076 3.1245 20.028 3.1125 19.98 3.096C19.8545 3.05329 19.7238 3.02756 19.5915 3.0195C19.56 3.0165 19.5315 3 19.5 3H9C7.3455 3 6 4.3455 6 6V30C6 31.6545 7.3455 33 9 33H27C28.6545 33 30 31.6545 30 30V13.5C30 13.4685 29.9835 13.44 29.9805 13.407C29.9732 13.2746 29.9474 13.1438 29.904 13.0185C29.889 12.9705 29.8755 12.924 29.8545 12.879ZM24.879 12H21V8.121L24.879 12ZM9 30V6H18V13.5C18 13.8978 18.158 14.2794 18.4393 14.5607C18.7206 14.842 19.1022 15 19.5 15H27L27.003 30H9Z" fill="#929292"/>
<path id="Vector_2" d="M12 18H24V21H12V18ZM12 24H24V27H12V24ZM12 12H15V15H12V12Z" fill="#929292"/>
</g>
</svg>
