<svg width="36" height="36" viewBox="0 0 36 36" fill="none" xmlns="http://www.w3.org/2000/svg">
<g clip-path="url(#clip0_402_1083)">
<path fill-rule="evenodd" clip-rule="evenodd" d="M3.4108 19.253C3.44051 19.044 3.53058 18.8378 3.66963 18.6603C3.80868 18.4829 3.99047 18.3422 4.19202 18.256L24.7118 9.50741C24.9013 9.42635 25.1005 9.39683 25.2871 9.42216C25.4737 9.4475 25.6403 9.52668 25.7681 9.65082C25.8959 9.77496 25.98 9.93914 26.0107 10.1249C26.0415 10.3107 26.0178 10.5107 25.9423 10.7025L17.7971 31.4692C17.7171 31.6734 17.5819 31.8594 17.4086 32.0039C17.2353 32.1483 17.0317 32.2446 16.8236 32.2806C16.6154 32.3165 16.4121 32.2906 16.2394 32.2059C16.0666 32.1213 15.9322 31.9818 15.853 31.8052L12.6105 24.5743L16.8999 20.1577C17.111 19.9402 17.2411 19.6613 17.2615 19.3824C17.2819 19.1034 17.191 18.8472 17.0086 18.6701C16.8263 18.4931 16.5676 18.4096 16.2893 18.4382C16.0111 18.4667 15.7361 18.6049 15.5249 18.8223L11.2355 23.239L3.91219 20.2099C3.73359 20.1358 3.59057 20.0054 3.50118 19.8352C3.4118 19.665 3.38087 19.4619 3.4108 19.253Z" fill="white"/>
</g>
<defs>
<clipPath id="clip0_402_1083">
<rect width="27.4293" height="23" fill="white" transform="translate(0 19.6758) rotate(-45.8373)"/>
</clipPath>
</defs>
</svg>
