<svg width="30" height="30" viewBox="0 0 30 30" fill="none" xmlns="http://www.w3.org/2000/svg">
<g id="Frame 7">
<rect width="30" height="30" fill="white"/>
<g id="Group 76">
<path id="Vector" d="M14.5006 17.092C15.9315 17.092 17.0915 15.932 17.0915 14.5011C17.0915 13.0701 15.9315 11.9102 14.5006 11.9102C13.0697 11.9102 11.9097 13.0701 11.9097 14.5011C11.9097 15.932 13.0697 17.092 14.5006 17.092Z" stroke="#525050" stroke-width="2" stroke-linecap="round" stroke-linejoin="round"/>
<path id="Vector_2" d="M20.8909 17.0909C20.7759 17.3514 20.7417 17.6403 20.7925 17.9205C20.8432 18.2007 20.9768 18.4592 21.1759 18.6627L21.2277 18.7145C21.3883 18.875 21.5157 19.0655 21.6026 19.2751C21.6896 19.4848 21.7343 19.7096 21.7343 19.9366C21.7343 20.1636 21.6896 20.3883 21.6026 20.598C21.5157 20.8077 21.3883 20.9982 21.2277 21.1586C21.0673 21.3192 20.8768 21.4466 20.6671 21.5336C20.4574 21.6205 20.2327 21.6652 20.0057 21.6652C19.7787 21.6652 19.5539 21.6205 19.3442 21.5336C19.1346 21.4466 18.9441 21.3192 18.7836 21.1586L18.7318 21.1068C18.5283 20.9077 18.2698 20.7742 17.9896 20.7234C17.7094 20.6726 17.4205 20.7069 17.16 20.8218C16.9046 20.9313 16.6867 21.1131 16.5333 21.3448C16.3798 21.5765 16.2975 21.848 16.2964 22.1259V22.2727C16.2964 22.7308 16.1144 23.1702 15.7905 23.4941C15.4665 23.818 15.0272 24 14.5691 24C14.111 24 13.6717 23.818 13.3477 23.4941C13.0238 23.1702 12.8418 22.7308 12.8418 22.2727V22.195C12.8351 21.9091 12.7426 21.6319 12.5763 21.3993C12.4099 21.1668 12.1775 20.9896 11.9091 20.8909C11.6486 20.7759 11.3597 20.7417 11.0795 20.7925C10.7993 20.8432 10.5408 20.9768 10.3373 21.1759L10.2855 21.2277C10.125 21.3883 9.93454 21.5157 9.72485 21.6026C9.51516 21.6896 9.2904 21.7343 9.06341 21.7343C8.83642 21.7343 8.61165 21.6896 8.40197 21.6026C8.19228 21.5157 8.00178 21.3883 7.84136 21.2277C7.68077 21.0673 7.55337 20.8768 7.46644 20.6671C7.37952 20.4574 7.33478 20.2327 7.33478 20.0057C7.33478 19.7787 7.37952 19.5539 7.46644 19.3442C7.55337 19.1346 7.68077 18.9441 7.84136 18.7836L7.89318 18.7318C8.09228 18.5283 8.22584 18.2698 8.27664 17.9896C8.32744 17.7094 8.29314 17.4205 8.17818 17.16C8.0687 16.9046 7.88693 16.6867 7.65522 16.5333C7.42351 16.3798 7.152 16.2975 6.87409 16.2964H6.72727C6.26917 16.2964 5.82983 16.1144 5.50591 15.7905C5.18198 15.4665 5 15.0272 5 14.5691C5 14.111 5.18198 13.6717 5.50591 13.3477C5.82983 13.0238 6.26917 12.8418 6.72727 12.8418H6.805C7.09086 12.8351 7.3681 12.7426 7.60067 12.5763C7.83324 12.4099 8.01039 12.1775 8.10909 11.9091C8.22405 11.6486 8.25835 11.3597 8.20755 11.0795C8.15675 10.7993 8.02319 10.5408 7.82409 10.3373L7.77227 10.2855C7.61168 10.125 7.48428 9.93454 7.39735 9.72485C7.31043 9.51516 7.26569 9.2904 7.26569 9.06341C7.26569 8.83642 7.31043 8.61165 7.39735 8.40197C7.48428 8.19228 7.61168 8.00178 7.77227 7.84136C7.93269 7.68077 8.12319 7.55337 8.33288 7.46644C8.54256 7.37952 8.76733 7.33478 8.99432 7.33478C9.22131 7.33478 9.44607 7.37952 9.65576 7.46644C9.86545 7.55337 10.0559 7.68077 10.2164 7.84136L10.2682 7.89318C10.4717 8.09228 10.7302 8.22584 11.0104 8.27664C11.2906 8.32744 11.5795 8.29314 11.84 8.17818H11.9091C12.1645 8.0687 12.3824 7.88693 12.5358 7.65522C12.6893 7.42351 12.7716 7.152 12.7727 6.87409V6.72727C12.7727 6.26917 12.9547 5.82983 13.2786 5.50591C13.6026 5.18198 14.0419 5 14.5 5C14.9581 5 15.3974 5.18198 15.7214 5.50591C16.0453 5.82983 16.2273 6.26917 16.2273 6.72727V6.805C16.2284 7.08291 16.3107 7.35442 16.4642 7.58613C16.6176 7.81783 16.8355 7.99961 17.0909 8.10909C17.3514 8.22405 17.6403 8.25835 17.9205 8.20755C18.2007 8.15675 18.4592 8.02319 18.6627 7.82409L18.7145 7.77227C18.875 7.61168 19.0655 7.48428 19.2751 7.39735C19.4848 7.31043 19.7096 7.26569 19.9366 7.26569C20.1636 7.26569 20.3883 7.31043 20.598 7.39735C20.8077 7.48428 20.9982 7.61168 21.1586 7.77227C21.3192 7.93269 21.4466 8.12319 21.5336 8.33288C21.6205 8.54256 21.6652 8.76733 21.6652 8.99432C21.6652 9.22131 21.6205 9.44607 21.5336 9.65576C21.4466 9.86545 21.3192 10.0559 21.1586 10.2164L21.1068 10.2682C20.9077 10.4717 20.7742 10.7302 20.7234 11.0104C20.6726 11.2906 20.7069 11.5795 20.8218 11.84V11.9091C20.9313 12.1645 21.1131 12.3824 21.3448 12.5358C21.5765 12.6893 21.848 12.7716 22.1259 12.7727H22.2727C22.7308 12.7727 23.1702 12.9547 23.4941 13.2786C23.818 13.6026 24 14.0419 24 14.5C24 14.9581 23.818 15.3974 23.4941 15.7214C23.1702 16.0453 22.7308 16.2273 22.2727 16.2273H22.195C21.9171 16.2284 21.6456 16.3107 21.4139 16.4642C21.1822 16.6176 21.0004 16.8355 20.8909 17.0909Z" stroke="#525050" stroke-width="2" stroke-linecap="round" stroke-linejoin="round"/>
</g>
</g>
</svg>
