<svg width="54" height="34" viewBox="0 0 54 34" fill="none" xmlns="http://www.w3.org/2000/svg">
<g id="Group 191">
<rect id="Rectangle 93" width="54" height="33.2308" rx="2" fill="#A9C3E3"/>
<g id="&#240;&#159;&#166;&#134; icon &#34;thumb up&#34;">
<path id="Vector" d="M30.3257 5.00912C29.6743 5.07766 29.0571 5.52321 28.7143 6.17439C28.2686 7.06548 24.9771 13.6801 24.3257 14.3313C23.6743 14.9825 22.8171 15.2909 21.8571 15.2909V29H33.8571C34.5771 29 35.1943 28.5545 35.4686 27.9375C35.4686 27.9375 39 17.9642 39 17.0046C39 16.0449 38.2457 15.2909 37.2857 15.2909H32.1429C31.1829 15.2909 30.4286 14.4341 30.4286 13.5773C30.4286 12.7205 31.7657 8.1622 32.04 7.27111C32.3143 6.38002 31.8686 5.42039 30.9771 5.11193C30.7371 5.04339 30.5657 4.97484 30.3257 5.00912ZM15 15.2909V29H18.4286V15.2909H15Z" fill="black"/>
</g>
</g>
</svg>
