<svg width="21" height="21" viewBox="0 0 21 21" fill="none" xmlns="http://www.w3.org/2000/svg">
<path id="Vector" d="M9.34491 20.9817C8.33825 20.8671 7.36721 20.5932 6.69171 19.8176C6.02676 19.0525 5.82754 18.0029 5.82754 16.7901C5.82754 16.1738 5.94232 15.3152 6.03468 14.6331L6.05447 14.4856H4.17836C3.38279 14.4856 2.62945 14.3723 1.97637 14.0457C1.30616 13.7113 0.775481 13.1518 0.477596 12.4655C-0.121386 11.1513 -0.100277 9.24311 0.22956 6.78188L0.282333 6.37892C0.422184 5.33991 0.540925 4.43917 0.693969 3.70172C0.868122 2.87209 1.11088 2.10963 1.57661 1.49992C2.56876 0.200165 4.23641 1.71623e-07 6.48721 1.71623e-07C8.92536 1.71623e-07 10.754 0.437201 12.2765 0.8586L12.9019 1.03374C13.77 1.28 14.4864 1.4828 15.1791 1.58024C15.3317 1.12017 15.6257 0.719815 16.0193 0.436116C16.413 0.152418 16.8863 -0.000186811 17.3718 1.71623e-07H18.6911C19.9656 1.71623e-07 21 1.03243 21 2.30452V12.1811C21 12.7923 20.7567 13.3784 20.3238 13.8106C19.8908 14.2428 19.3035 14.4856 18.6911 14.4856H17.3718C16.9672 14.4856 16.5698 14.3796 16.2192 14.178C15.8686 13.9765 15.5773 13.6866 15.3743 13.3373C15.0326 13.4755 14.5959 13.6902 14.1618 14.0062C13.2766 14.6528 12.4243 15.6984 12.4243 17.4485V18.107C12.4243 19.6885 11.1128 21.1832 9.34491 20.9817ZM15.063 3.55687C14.1315 3.43967 13.2291 3.18288 12.3293 2.92609L11.7474 2.76148C10.3014 2.36115 8.66677 1.97531 6.48721 1.97531C4.12031 1.97531 3.47911 2.26765 3.15059 2.69695C2.95664 2.95111 2.78777 3.36197 2.63209 4.106C2.49355 4.76707 2.38405 5.58616 2.24288 6.64756L2.19011 7.04262C1.86027 9.52097 1.93943 10.905 2.2785 11.6477C2.38962 11.9225 2.59747 12.1473 2.86297 12.2798C3.1374 12.4168 3.54903 12.5103 4.17836 12.5103H6.48721C7.39096 12.5103 8.19576 13.2701 8.07702 14.2683C8.048 14.5211 8.01237 14.7819 7.97807 15.04C7.89099 15.6826 7.80655 16.3173 7.80655 16.7901C7.80655 17.8541 7.99654 18.3045 8.18653 18.5231C8.36728 18.7298 8.71558 18.9221 9.5692 19.0196C9.97424 19.0657 10.4452 18.7075 10.4452 18.107V17.4485C10.4452 14.9175 11.7356 13.3307 12.9942 12.4115C13.6262 11.9545 14.3236 11.5954 15.063 11.3462V3.55687ZM17.3718 12.509H18.6911C18.7786 12.509 18.8625 12.4743 18.9244 12.4125C18.9862 12.3508 19.021 12.267 19.021 12.1797V2.30321C19.021 2.21589 18.9862 2.13215 18.9244 2.07041C18.8625 2.00867 18.7786 1.97399 18.6911 1.97399H17.3718C17.2843 1.97399 17.2004 2.00867 17.1386 2.07041C17.0767 2.13215 17.042 2.21589 17.042 2.30321V12.1797C17.042 12.3615 17.1897 12.509 17.3718 12.509Z" fill="black"/>
</svg>
