<svg width="31" height="31" viewBox="0 0 31 31" fill="none" xmlns="http://www.w3.org/2000/svg">
<g id="icons8-twitter-100 1" clip-path="url(#clip0_240_64)">
<g id="Group">
<path id="Vector" opacity="0.952" fill-rule="evenodd" clip-rule="evenodd" d="M30.8447 6.04487C30.8447 6.35487 30.8447 6.66487 30.8447 6.97487C29.9244 7.94622 28.9428 8.87622 27.8997 9.76487C27.7283 18.6448 23.5433 24.6898 15.3447 27.8999C9.94577 29.3485 4.77909 28.7801 -0.155273 26.1949C-0.155273 25.9882 -0.155273 25.7815 -0.155273 25.5749C3.04224 25.8608 5.93558 25.0858 8.52473 23.2499C5.71411 22.7628 3.95743 21.1611 3.25473 18.4449C3.66458 18.3922 4.02622 18.4955 4.33973 18.7549C4.49473 18.5999 4.64973 18.4449 4.80473 18.2899C2.14759 16.9487 0.907589 14.8303 1.08473 11.9349C1.65244 12.378 2.27244 12.533 2.94473 12.3999C1.18957 10.5096 0.621239 8.2879 1.23973 5.73487C1.30054 5.18118 1.55887 4.76782 2.01473 4.49487C5.51233 8.36212 9.85233 10.4804 15.0347 10.8499C14.4636 7.24345 15.9102 4.76345 19.3747 3.40987C21.9957 2.83813 24.3207 3.40646 26.3497 5.11487C27.6018 4.72076 28.7901 4.20409 29.9147 3.56487C29.8944 4.79805 29.3777 5.88305 28.3647 6.81987C29.2403 6.78676 30.067 6.52844 30.8447 6.04487Z" fill="black"/>
</g>
</g>
<defs>
<clipPath id="clip0_240_64">
<rect width="31" height="31" fill="white"/>
</clipPath>
</defs>
</svg>
