<svg width="58" height="36" viewBox="0 0 58 36" fill="none" xmlns="http://www.w3.org/2000/svg">
<g id="Group 197">
<rect id="Rectangle 93" x="1" y="1" width="56" height="33.6923" rx="1" fill="#A9C3E3" stroke="black" stroke-width="2"/>
<g id="&#240;&#159;&#166;&#134; icon &#34;thumb up&#34;">
<path id="Vector" d="M32.5656 6.0043L32.584 6.00236L32.5964 6.00059C32.599 6.00101 32.6024 6.00165 32.6069 6.00259C32.6249 6.00634 32.6516 6.01305 32.7004 6.02719C32.7216 6.03333 32.7431 6.03973 32.7693 6.04754L32.782 6.05131C32.8036 6.05775 32.8277 6.06491 32.8534 6.07237C33.2566 6.22362 33.4907 6.67665 33.3465 7.14516C33.1959 7.6343 32.7601 9.10831 32.3613 10.5779C32.1619 11.3123 31.9694 12.0544 31.826 12.6758C31.6939 13.2482 31.5714 13.8459 31.5714 14.2126C31.5714 15.6467 32.7916 17.0532 34.4127 17.0532H39.9365C40.4087 17.0532 40.7671 17.4051 40.7775 17.8728C40.776 17.8825 40.771 17.9196 40.7557 17.9941C40.7332 18.1036 40.6976 18.2516 40.6481 18.4382C40.5496 18.8104 40.406 19.2984 40.2298 19.8678C39.878 21.0047 39.4071 22.4308 38.9339 23.8317C38.4611 25.2311 37.9881 26.5991 37.6331 27.6177C37.4557 28.1268 37.3078 28.5484 37.2044 28.8426L37.0844 29.1832L37.0574 29.2596C36.9054 29.5723 36.5924 29.7778 36.254 29.7778H24.3651V16.9614C25.2429 16.7949 26.0561 16.3969 26.7235 15.7297C26.9037 15.5496 27.0915 15.2652 27.2481 15.0148C27.4247 14.7324 27.6309 14.3782 27.853 13.9824C28.298 13.1892 28.8262 12.1947 29.3434 11.1999C30.2983 9.36323 31.2292 7.5 31.5553 6.84725C31.5803 6.79726 31.6017 6.75437 31.6193 6.71914C31.8545 6.27852 32.2442 6.03812 32.5656 6.0043ZM18.6825 29.7778H17V17.0532H18.6825V29.7778Z" fill="black" stroke="black" stroke-width="2"/>
</g>
</g>
</svg>
