<svg width="54" height="34" viewBox="0 0 54 34" fill="none" xmlns="http://www.w3.org/2000/svg">
<g id="Group 190">
<rect id="Rectangle 94" y="0.230469" width="54" height="33.23" rx="2" fill="#0954B0" fill-opacity="0.7"/>
<g id="&#240;&#159;&#166;&#134; icon &#34;thumb down&#34;">
<path id="Vector" d="M15 5V18.7271H18.4286V5H15ZM21.8571 5V18.7271C22.8171 18.7271 23.6743 19.036 24.3257 19.688C24.9771 20.3401 28.2686 26.9634 28.7143 27.8557C29.16 28.748 30.0514 29.1941 30.9771 28.9196C31.8686 28.645 32.3486 27.6841 32.04 26.7575C31.7657 25.8653 30.4286 21.301 30.4286 20.443C30.4286 19.5851 31.1829 18.7271 32.1429 18.7271H37.2857C38.2457 18.7271 39 17.9722 39 17.0113C39 16.0504 35.4686 6.06385 35.4686 6.06385C35.1943 5.44613 34.5771 5 33.8571 5H21.8571Z" fill="black"/>
</g>
</g>
</svg>
